# xmcd CD database file generated by Grip 2.91
# 
# Track frame offsets:
#       182
#       31207
#       56217
#       102167
#       127435
#       174317
# 
# Disc length: 2669 seconds
# 
# Revision: 3
# Processed by: cddbd v1.4b41PL1 Copyright (c) Steve Scherf et al.
# Submitted via: Grip 2.91
# 
DISCID=510a6b06
DTITLE=Michel Petrucciani - Date with Time
DYEAR=1900
DGENRE=
TTITLE0=Santa Barbara (Michel Petrucciani)
TTITLE1=Afro Blue (John Coltrane)
TTITLE2=Round about midnight (Thelonious Monk)
TTITLE3=Memphis Green (Charles Loyd)
TTITLE4=Mike Pee (Michel Petrucciani)
TTITLE5=Bumpin' on the Sunset (Wes Montgomery)
EXTD=
EXTT0=
EXTT1=
EXTT2=
EXTT3=
EXTT4=
EXTT5=
PLAYORDER=
